<?xml version="1.0" standalone="no"?>
<!DOCTYPE svg PUBLIC "-//W3C//DTD SVG 20010904//EN"
 "http://www.w3.org/TR/2001/REC-SVG-20010904/DTD/svg10.dtd">
<svg version="1.0" xmlns="http://www.w3.org/2000/svg"
 width="500.000000pt" height="500.000000pt" viewBox="0 0 500.000000 500.000000"
 preserveAspectRatio="xMidYMid meet">

<g transform="translate(0.000000,500.000000) scale(0.100000,-0.100000)"
fill="#000000" stroke="none">
<path d="M3675 2384 c-146 -21 -300 -82 -405 -159 -75 -55 -175 -168 -225
-252 -142 -243 -152 -554 -25 -804 106 -207 290 -359 516 -424 393 -114 814
76 988 446 60 127 71 183 70 369 0 153 -2 171 -28 245 -117 342 -413 566 -766
580 -52 2 -108 1 -125 -1z m123 -285 c2 -10 -63 -93 -155 -200 -88 -101 -175
-206 -195 -232 -51 -68 -73 -136 -73 -232 0 -110 30 -188 103 -266 192 -208
531 -156 650 100 24 50 27 68 27 166 0 100 -3 115 -27 166 -27 53 -270 349
-288 349 -5 0 -50 -48 -100 -107 -122 -144 -135 -202 -72 -314 24 -44 25 -50
11 -64 -24 -24 -46 -9 -79 58 -39 77 -41 149 -6 223 23 50 227 294 246 294 24
0 306 -335 341 -405 115 -234 10 -511 -238 -626 -66 -31 -225 -39 -308 -14
-238 69 -380 337 -305 576 27 86 50 119 250 351 135 155 177 198 194 196 11
-2 22 -10 24 -19z m-14 -635 c9 -4 16 -18 16 -34 0 -24 5 -29 36 -34 31 -6 35
-10 32 -34 -2 -22 -9 -28 -35 -30 -28 -3 -32 -7 -35 -35 -2 -25 -8 -33 -27
-35 -26 -4 -41 12 -41 46 0 18 -6 22 -29 22 -22 0 -32 6 -37 22 -7 24 17 48
48 48 12 0 18 8 18 25 0 13 8 29 18 34 21 13 17 12 36 5z"/>
</g>
</svg>
