<?xml version="1.0" standalone="no"?>
<!DOCTYPE svg PUBLIC "-//W3C//DTD SVG 20010904//EN"
 "http://www.w3.org/TR/2001/REC-SVG-20010904/DTD/svg10.dtd">
<svg version="1.0" xmlns="http://www.w3.org/2000/svg"
 width="500.000000pt" height="500.000000pt" viewBox="0 0 500.000000 500.000000"
 preserveAspectRatio="xMidYMid meet">
<metadata>
Created by potrace 1.16, written by Peter Selinger 2001-2019
</metadata>
<g transform="translate(0.000000,500.000000) scale(0.100000,-0.100000)"
fill="#000000" stroke="none">
<path d="M0 2500 l0 -2500 2500 0 2500 0 0 2500 0 2500 -2500 0 -2500 0 0
-2500z m3413 1809 c42 -19 296 -440 423 -703 104 -216 137 -316 142 -443 3
-85 0 -115 -18 -175 -94 -316 -431 -503 -743 -411 -185 54 -332 194 -402 383
-24 64 -28 91 -29 180 -1 97 2 114 38 220 46 133 194 432 316 635 192 320 211
342 273 314z m-1320 -613 c12 -13 83 -122 158 -242 539 -865 809 -1454 809
-1763 0 -405 -258 -782 -640 -938 -136 -55 -208 -68 -385 -68 -135 0 -173 4
-244 23 -372 101 -642 370 -741 738 -27 100 -38 289 -20 376 67 345 346 913
813 1658 149 238 150 240 193 240 24 0 42 -7 57 -24z"/>
<path d="M3275 3933 c-115 -194 -280 -519 -316 -623 -74 -219 6 -439 202 -553
122 -71 282 -76 414 -14 168 80 278 262 262 432 -14 144 -139 415 -365 790
-46 77 -85 142 -87 143 -2 2 -51 -76 -110 -175z m339 -704 c34 -16 47 -57 31
-95 -27 -64 -150 -185 -223 -220 -41 -19 -83 -6 -101 32 -19 42 -3 72 60 114
32 22 73 59 91 81 80 101 94 110 142 88z"/>
<path d="M2020 3488 c-413 -648 -747 -1297 -826 -1607 -114 -449 169 -909 637
-1032 117 -31 289 -31 412 -1 170 42 309 123 428 249 208 221 286 509 214 788
-71 271 -308 754 -639 1300 -157 258 -200 325 -206 325 -3 0 -12 -10 -20 -22z
m558 -1734 c43 -30 18 -112 -79 -256 -93 -139 -308 -318 -381 -318 -35 0 -63
21 -69 50 -8 39 12 68 72 105 73 45 187 150 239 220 20 28 54 82 75 120 21 39
45 76 53 83 22 17 63 15 90 -4z"/>
</g>
</svg>
