<?xml version="1.0" standalone="no"?>
<!DOCTYPE svg PUBLIC "-//W3C//DTD SVG 20010904//EN"
 "http://www.w3.org/TR/2001/REC-SVG-20010904/DTD/svg10.dtd">
<svg version="1.0" xmlns="http://www.w3.org/2000/svg"
 width="500.000000pt" height="500.000000pt" viewBox="0 0 500.000000 500.000000"
 preserveAspectRatio="xMidYMid meet">
<metadata>
Created by potrace 1.16, written by Peter Selinger 2001-2019
</metadata>
<g transform="translate(0.000000,500.000000) scale(0.100000,-0.100000)"
fill="#000000" stroke="none">
<path d="M3234 4302 c-39 -27 -279 -432 -394 -667 -144 -293 -180 -414 -161
-550 20 -144 67 -241 165 -344 103 -107 242 -173 391 -184 l60 -5 -70 22
c-153 48 -261 127 -344 252 -71 105 -96 190 -95 324 0 93 4 117 34 204 60 177
210 466 397 769 57 92 101 172 98 177 -7 12 -65 13 -81 2z"/>
<path d="M3353 4062 l-21 -38 85 -144 c115 -196 247 -465 283 -578 48 -150 36
-274 -40 -392 -59 -91 -176 -177 -273 -200 l-32 -8 40 -1 c149 -4 322 106 394
249 65 131 64 236 -5 414 -65 169 -367 722 -400 733 -5 1 -19 -14 -31 -35z"/>
<path d="M1888 3708 c-32 -26 -342 -530 -506 -825 -340 -610 -484 -991 -469
-1243 29 -471 380 -864 844 -945 125 -22 180 -18 73 4 -314 67 -590 288 -721
576 -80 178 -110 402 -75 572 67 334 375 951 839 1682 86 135 107 175 96 182
-20 13 -63 11 -81 -3z"/>
<path d="M2013 3475 c-13 -19 -23 -37 -23 -40 0 -3 56 -97 123 -208 342 -559
580 -1037 664 -1335 70 -245 7 -528 -165 -743 -109 -138 -288 -253 -462 -298
-74 -20 -74 -20 -29 -20 101 -2 287 63 399 139 188 127 320 318 371 535 29
128 24 281 -15 410 -93 310 -336 790 -694 1372 -75 123 -139 223 -142 223 -3
0 -15 -16 -27 -35z"/>
<path d="M3444 3230 c-12 -5 -31 -24 -43 -43 -21 -35 -88 -99 -154 -150 -30
-22 -37 -35 -37 -61 0 -51 38 -77 92 -63 24 6 26 9 15 36 -16 42 -2 63 77 124
38 28 83 72 100 95 30 43 30 44 12 58 -22 16 -32 16 -62 4z"/>
<path d="M2373 1748 c-11 -13 -37 -54 -57 -93 -52 -100 -141 -202 -237 -273
-142 -104 -139 -101 -139 -133 0 -37 32 -69 68 -69 43 0 54 12 43 43 -16 42 1
69 74 116 134 87 244 210 315 350 25 51 29 66 18 72 -24 16 -64 9 -85 -13z"/>
</g>
</svg>
