<?xml version="1.0" standalone="no"?>
<!DOCTYPE svg PUBLIC "-//W3C//DTD SVG 20010904//EN"
 "http://www.w3.org/TR/2001/REC-SVG-20010904/DTD/svg10.dtd">
<svg version="1.0" xmlns="http://www.w3.org/2000/svg"
 width="500.000000pt" height="500.000000pt" viewBox="0 0 500.000000 500.000000"
 preserveAspectRatio="xMidYMid meet">
<metadata>
Created by potrace 1.16, written by Peter Selinger 2001-2019
</metadata>
<g transform="translate(0.000000,500.000000) scale(0.100000,-0.100000)"
fill="#000000" stroke="none">
<path d="M2285 4254 c-235 -27 -479 -103 -650 -202 -126 -73 -168 -102 -249
-166 -206 -166 -353 -350 -475 -593 -28 -56 -51 -106 -51 -112 0 -6 -4 -19
-10 -29 -20 -36 -62 -182 -79 -272 -30 -162 -33 -203 -28 -375 5 -173 14 -261
37 -352 5 -24 14 -60 19 -80 8 -38 16 -60 31 -98 4 -11 14 -36 21 -55 56 -156
155 -326 282 -485 44 -55 195 -206 237 -238 19 -14 52 -39 73 -56 21 -17 47
-33 58 -36 10 -4 19 -11 19 -16 0 -5 5 -9 11 -9 6 0 29 -13 52 -29 77 -53 261
-134 367 -163 19 -5 51 -14 70 -19 106 -31 214 -47 384 -55 346 -18 724 89
1018 287 296 200 546 519 658 839 7 19 16 44 20 55 13 34 36 127 62 250 7 37
12 147 13 290 0 255 -5 297 -67 515 -5 19 -12 45 -15 58 -3 12 -9 25 -14 28
-5 3 -9 13 -9 23 0 24 -117 253 -170 331 -285 424 -730 699 -1230 760 -78 9
-314 12 -385 4z m220 -559 c14 -13 25 -32 25 -43 0 -17 -40 -69 -124 -162 -17
-19 -67 -78 -111 -130 -44 -52 -83 -97 -86 -100 -8 -7 -297 -344 -342 -399
-151 -183 -205 -316 -214 -523 -5 -109 -3 -140 17 -220 37 -156 96 -263 209
-382 60 -62 198 -166 222 -166 5 0 28 -9 52 -19 95 -43 190 -61 324 -61 58 0
124 5 147 11 102 27 125 35 191 67 89 44 185 115 253 187 28 31 52 58 52 60 0
2 17 31 38 64 41 62 82 168 102 261 14 63 8 300 -8 370 -15 63 -67 173 -115
244 -35 52 -54 77 -102 130 -5 6 -46 54 -90 106 -44 52 -82 97 -85 100 -3 3
-30 34 -60 70 -30 35 -59 70 -65 76 -5 6 -34 39 -63 73 -30 33 -57 61 -61 61
-6 0 -63 -63 -171 -190 -12 -14 -36 -41 -53 -60 -132 -145 -177 -219 -197
-323 -20 -108 3 -208 71 -309 45 -66 51 -109 17 -132 -43 -30 -73 -21 -114 36
-173 241 -147 515 73 753 10 11 43 49 73 85 30 36 57 67 60 70 3 3 50 56 104
118 92 105 121 132 144 132 13 0 55 -41 122 -119 30 -35 60 -69 65 -75 6 -6
82 -94 170 -196 88 -102 171 -198 184 -213 101 -114 183 -263 223 -402 29
-105 32 -339 5 -452 -27 -114 -78 -237 -131 -314 -53 -78 -171 -197 -257 -258
-65 -46 -197 -113 -259 -130 -25 -7 -59 -17 -76 -22 -17 -5 -105 -9 -197 -9
-185 0 -276 17 -394 72 -137 64 -292 190 -366 298 -17 25 -37 51 -44 58 -15
15 -77 146 -97 205 -38 113 -47 172 -48 306 0 115 4 152 26 235 25 97 100 264
134 302 10 11 29 35 42 54 14 19 34 46 46 60 36 42 185 213 213 245 14 17 80
93 146 170 66 77 122 142 125 145 3 3 34 39 70 80 36 41 76 87 89 102 30 35
64 36 96 3z m12 -1347 c8 -6 13 -33 13 -64 l0 -54 34 0 c96 0 146 -63 101
-127 -12 -18 -27 -23 -73 -25 l-57 -3 -5 -60 c-4 -51 -9 -61 -30 -72 -52 -27
-110 11 -110 72 0 57 -7 65 -60 65 -70 0 -104 42 -80 100 11 27 44 42 115 52
13 2 21 12 23 28 8 76 13 89 40 99 29 11 69 6 89 -11z"/>
</g>
</svg>
