<?xml version="1.0" standalone="no"?>
<!DOCTYPE svg PUBLIC "-//W3C//DTD SVG 20010904//EN"
 "http://www.w3.org/TR/2001/REC-SVG-20010904/DTD/svg10.dtd">
<svg version="1.0" xmlns="http://www.w3.org/2000/svg"
 width="500.000000pt" height="500.000000pt" viewBox="0 0 500.000000 500.000000"
 preserveAspectRatio="xMidYMid meet">

<g transform="translate(0.000000,500.000000) scale(0.100000,-0.100000)"
fill="#000000" stroke="none">
<path d="M1125 4640 c-242 -38 -465 -182 -603 -389 -65 -97 -103 -190 -128
-312 -22 -110 -15 -302 16 -409 85 -299 318 -530 618 -612 112 -31 343 -31
457 0 315 87 564 349 630 663 20 95 19 291 -1 381 -31 135 -111 291 -202 393
-105 118 -286 228 -437 265 -93 24 -263 33 -350 20z m155 -285 c7 -8 10 -20 7
-27 -3 -7 -87 -107 -187 -223 -199 -231 -227 -270 -246 -354 -36 -150 3 -290
110 -396 59 -59 113 -88 210 -112 82 -20 173 -9 261 31 69 31 163 123 193 189
65 140 52 308 -35 425 -45 60 -254 302 -262 302 -10 0 -149 -162 -182 -211
-48 -71 -46 -166 5 -237 19 -27 23 -40 15 -54 -37 -68 -119 57 -119 182 0 43
7 71 30 116 39 78 224 289 252 289 33 0 308 -320 354 -412 121 -239 22 -529
-222 -649 -73 -36 -84 -39 -185 -42 -159 -6 -256 28 -352 122 -128 125 -180
292 -143 458 19 86 60 160 138 251 195 229 321 367 332 367 8 0 19 -7 26 -15z
m8 -712 c2 -24 8 -33 22 -33 35 0 50 -12 50 -41 0 -24 -5 -29 -34 -35 -30 -5
-35 -10 -38 -38 -3 -27 -7 -31 -33 -31 -26 0 -30 4 -33 31 -3 28 -8 33 -38 38
-19 4 -34 9 -34 11 0 2 -3 10 -6 18 -7 20 22 47 52 47 20 0 24 5 24 28 0 36 8
44 40 40 20 -2 26 -9 28 -35z"/>
</g>
</svg>
